# 3ds Max Wavefront OBJ Exporter v0.97b - (c)2007 guruware
# File Created: 30.10.2018 10:41:39

mtllib shroom.mtl

#
# object mushroom_Circle_006
#

v  3.7533 7.5592 -3.3997
v  5.1573 7.2490 -0.0244
v  4.6304 6.8253 -0.0434
v  3.3713 7.1035 -3.0705
v  3.3713 6.5471 2.9836
v  3.7533 6.9387 3.3510
v  0.3638 6.8102 4.7490
v  0.3315 6.4319 4.2374
v  -3.0257 6.9387 3.3510
v  -4.4296 7.2490 -0.0244
v  -3.9675 6.8253 -0.0434
v  -2.7083 6.5471 2.9836
v  0.3315 7.2188 -4.3243
v  -2.7083 7.1035 -3.0705
v  -3.0257 7.5592 -3.3997
v  0.3638 7.6877 -4.7976
v  -4.0707 7.8058 -0.0166
v  -2.7846 8.0899 -3.1084
v  3.4251 8.0899 -3.1084
v  4.7111 7.8058 -0.0166
v  3.4251 7.5216 3.0752
v  0.3202 7.4039 4.3559
v  -2.7846 7.5216 3.0752
v  0.3202 8.2077 -4.3891
v  0.2344 8.6265 -3.1367
v  2.4783 8.5414 -2.2111
v  3.4077 8.3361 0.0234
v  2.4783 8.1307 2.2579
v  0.2344 8.0456 3.1834
v  -2.0096 8.1307 2.2579
v  -2.9390 8.3361 0.0234
v  -2.0096 8.5414 -2.2111
v  -0.9778 9.0612 1.2787
v  -1.5595 9.1897 -0.1198
v  -0.9778 9.3183 -1.5182
v  0.4266 9.3715 -2.0975
v  1.8309 9.3183 -1.5182
v  2.4126 9.1897 -0.1198
v  1.8309 9.0612 1.2787
v  0.4266 9.0080 1.8579
v  1.0966 9.7671 -0.9069
v  1.3709 9.7065 -0.2476
v  1.0966 9.6459 0.4118
v  0.4344 9.6208 0.6850
v  -0.2278 9.6459 0.4118
v  -0.5020 9.7065 -0.2476
v  -0.2278 9.7671 -0.9069
v  0.4344 9.7922 -1.1801
v  0.4592 9.8250 0.1665
v  0.1610 9.8363 0.0435
v  0.0374 9.8636 -0.2536
v  0.1610 9.8909 -0.5505
v  0.7575 9.8909 -0.5505
v  0.8811 9.8636 -0.2536
v  0.7575 9.8363 0.0435
v  0.4592 9.9022 -0.6736
v  0.6726 9.8927 -0.1601
v  0.3743 9.8814 -0.0370
v  0.2508 9.9087 -0.3340
v  0.5491 9.9200 -0.4571
v  1.6277 0.7360 -0.2740
v  1.3374 1.4524 -0.5526
v  1.0363 1.6095 0.1573
v  1.2415 0.8075 0.6556
v  -0.6232 0.8075 0.6556
v  0.3092 0.8371 1.0408
v  0.3092 1.6746 0.4514
v  -0.4179 1.6095 0.1573
v  -0.6232 0.6646 -1.2036
v  -1.0094 0.7360 -0.2740
v  -0.7191 1.4524 -0.5526
v  -0.4179 1.2952 -1.2624
v  1.2415 0.6646 -1.2036
v  1.0363 1.2952 -1.2624
v  0.3092 0.6350 -1.5886
v  0.3092 1.2302 -1.5565
v  0.9066 3.0125 -1.4797
v  1.1541 2.9646 -0.8842
v  0.9066 2.9168 -0.2887
v  0.3092 2.8969 -0.0420
v  -0.2883 2.9168 -0.2887
v  -0.5357 2.9646 -0.8842
v  -0.2883 3.0125 -1.4797
v  0.3092 3.0323 -1.7264
v  0.3092 4.4464 0.0738
v  -0.2167 4.5256 -0.1282
v  -0.4345 4.7168 -0.6156
v  -0.2167 4.9080 -1.1030
v  0.8350 4.9080 -1.1030
v  1.0528 4.7168 -0.6156
v  0.8350 4.5256 -0.1282
v  0.3092 4.9872 -1.3049
v  0.3092 6.3057 -0.8268
v  0.7412 6.2830 -0.6494
v  0.9201 6.2279 -0.2209
v  0.7412 6.1729 0.2075
v  0.3092 6.1501 0.3850
v  -0.1228 6.1729 0.2075
v  -0.3017 6.2279 -0.2209
v  -0.1228 6.2830 -0.6494
v  0.7089 7.4005 0.3012
v  0.3092 7.3945 0.4666
v  -0.0905 7.4005 0.3012
v  -0.2561 7.4152 -0.0983
v  -0.0905 7.4298 -0.4977
v  0.3092 7.4359 -0.6632
v  0.7089 7.4298 -0.4977
v  0.8745 7.4152 -0.0983
v  -2.4310 8.3011 1.3845
v  -2.1387 8.5676 1.0842
v  -2.6789 8.3638 0.7882
v  -2.1629 8.7147 0.6105
v  -2.4894 8.6562 0.2410
v  -2.9269 8.4265 0.1920
v  -3.2191 8.1601 0.4923
v  -3.1950 8.0130 0.9659
v  -2.8685 8.0714 1.3355
v  0.6314 8.6808 2.3629
v  0.9736 8.4024 2.5907
v  1.2165 8.7317 2.0873
v  0.9749 9.1465 1.6509
v  0.6319 8.9891 1.9736
v  1.8011 8.4743 2.2011
v  1.8017 8.7826 1.8116
v  1.4582 8.3169 2.5237
v  1.4594 9.0610 1.5838
v  0.4968 8.4678 2.2350
v  0.8832 8.1534 2.4923
v  0.8846 8.9937 1.4310
v  0.4973 8.8159 1.7954
v  1.8176 8.2347 2.0522
v  1.8182 8.5827 1.6125
v  1.4303 8.0569 2.4165
v  1.4317 8.8971 1.3554
v  -3.1346 7.7422 0.9124
v  -2.7660 7.8082 1.3297
v  -2.8319 8.2091 0.0385
v  -3.1619 7.9083 0.3775
v  -1.9420 8.3684 1.0459
v  -1.9693 8.5345 0.5112
v  -2.2720 8.0675 1.3850
v  -2.3379 8.4685 0.0938
v  1.3009 8.5461 -3.1768
v  1.5309 8.6088 -2.9229
v  1.7229 8.4176 -3.2884
v  1.8733 8.5595 -2.8830
v  2.1277 8.4271 -3.0806
v  2.1449 8.2891 -3.4001
v  1.9149 8.2264 -3.6540
v  1.5725 8.2757 -3.6937
v  1.3181 8.4081 -3.4962
v  1.5199 8.0856 -3.6737
v  1.2327 8.2352 -3.4506
v  2.1663 8.1007 -3.3421
v  1.9066 8.0299 -3.6287
v  1.4729 8.4618 -2.8032
v  1.8596 8.4061 -2.7583
v  1.2132 8.3910 -3.0900
v  2.1468 8.2566 -2.9815
v  1.2237 0.1746 0.7500
v  1.6026 0.1746 -0.1645
v  -0.6054 0.1746 0.7500
v  0.3092 0.1746 1.1289
v  -0.6054 0.1746 -1.0791
v  -0.9842 0.1746 -0.1645
v  1.2237 0.1746 -1.0791
v  0.3092 0.1746 -1.4578
v  1.1734 0.0057 -0.1130
v  0.9203 0.0125 -0.7240
v  -0.5550 0.0057 -0.1130
v  -0.3019 0.0125 -0.7240
v  0.3092 -0.0553 -0.1130
v  0.3092 -0.0039 0.7510
v  0.9203 -0.0011 0.4979
v  -0.3019 -0.0011 0.4979
v  0.3092 0.0153 -0.9770
v  1.2999 7.3446 -1.1681
v  1.7103 7.2852 -0.1791
v  1.2999 7.2258 0.8098
v  0.3092 7.2012 1.2195
v  -0.6816 7.2258 0.8098
v  -1.0919 7.2852 -0.1791
v  -0.6816 7.3446 -1.1681
v  0.3092 7.3692 -1.5777
v  3.4131 6.9708 -0.0087
v  2.5040 6.7699 2.1769
v  0.3092 6.6867 3.0823
v  -1.8856 6.7699 2.1769
v  -2.7948 6.9708 -0.0087
v  -1.8856 7.1717 -2.1943
v  2.5040 7.1717 -2.1943
v  0.3092 7.2549 -3.0996
# 192 vertices

vn 0.6012 -0.7334 -0.3175
vn 0.2620 -0.7838 0.5631
vn -0.6565 -0.7255 0.2064
vn -0.2584 -0.6774 -0.6888
vn 0.2510 -0.6962 -0.6725
vn 0.6119 -0.7693 0.1838
vn -0.2698 -0.7659 0.5836
vn -0.6449 -0.6886 -0.3316
vn -0.8035 0.5220 -0.2863
vn 0.7524 0.6065 -0.2572
vn 0.3029 0.5415 0.7842
vn -0.7827 0.4993 0.3715
vn -0.3328 0.5653 -0.7548
vn 0.3241 0.6012 -0.7304
vn 0.7312 0.5809 0.3576
vn -0.3118 0.5085 0.8026
vn 0.1606 0.9393 -0.3031
vn 0.3723 0.8972 0.2373
vn -0.1665 0.8598 0.4828
vn -0.4199 0.9029 -0.0917
vn 0.3741 0.9247 -0.0706
vn 0.1588 0.8709 0.4650
vn -0.4177 0.8724 0.2539
vn -0.1685 0.9313 -0.3230
vn -0.4845 0.8295 0.2778
vn -0.2505 0.8082 -0.5330
vn 0.2734 0.7571 -0.5933
vn 0.5917 0.7424 0.3143
vn -0.1990 0.8065 0.5567
vn -0.5315 0.8347 -0.1444
vn 0.6541 0.7281 -0.2052
vn 0.2156 0.7751 0.5940
vn 0.4523 0.8855 -0.1068
vn 0.1558 0.8751 0.4582
vn -0.4010 0.8819 0.2479
vn -0.2016 0.8910 -0.4068
vn 0.2027 0.8895 -0.4096
vn 0.4056 0.8793 0.2495
vn -0.1551 0.8760 0.4566
vn -0.4468 0.8886 -0.1042
vn -0.1131 0.9263 0.3595
vn -0.2798 0.9596 -0.0282
vn 0.3056 0.9513 -0.0397
vn 0.1172 0.9221 0.3688
vn -0.2720 0.9414 0.1997
vn -0.1214 0.9712 -0.2050
vn 0.1260 0.9681 -0.2165
vn 0.2964 0.9319 0.2089
vn 0.0630 0.9683 0.2418
vn -0.1490 0.9771 0.1518
vn 0.0856 0.9895 -0.1167
vn 0.0000 0.9958 0.0915
vn 0.1504 0.9882 0.0282
vn -0.0610 0.9965 -0.0564
vn -0.2049 0.9788 0.0047
vn -0.0875 0.9500 0.2996
vn 0.2134 0.9608 0.1770
vn 0.8523 0.4303 0.2973
vn -0.3433 0.5487 0.7623
vn -0.8869 0.2253 -0.4032
vn 0.8869 0.2253 -0.4032
vn 0.3433 0.5487 0.7623
vn -0.8523 0.4303 0.2973
vn -0.3763 0.0428 -0.9255
vn 0.3763 0.0428 -0.9255
vn 0.9210 0.0231 -0.3890
vn 0.3653 0.3405 0.8664
vn -0.9089 0.2016 0.3651
vn -0.3791 -0.0874 -0.9212
vn 0.3791 -0.0874 -0.9212
vn 0.9089 0.2016 0.3651
vn -0.3653 0.3405 0.8664
vn -0.9210 0.0231 -0.3890
vn -0.3754 -0.0723 0.9240
vn -0.9218 0.1095 -0.3719
vn 0.9218 0.1095 -0.3719
vn 0.3754 -0.0723 0.9240
vn -0.9190 -0.0031 0.3942
vn -0.3785 0.1946 -0.9049
vn 0.3785 0.1946 -0.9049
vn 0.9190 -0.0031 0.3942
vn 0.3783 0.3144 -0.8706
vn 0.9197 -0.0246 0.3918
vn -0.3784 -0.1652 0.9108
vn -0.9197 0.1755 -0.3512
vn 0.9197 0.1755 -0.3512
vn 0.3784 -0.1652 0.9108
vn -0.9197 -0.0246 0.3918
vn -0.3783 0.3144 -0.8706
vn 0.3823 -0.0604 0.9221
vn -0.9234 -0.0046 0.3838
vn -0.3818 0.1321 -0.9148
vn 0.3818 0.1321 -0.9148
vn 0.9234 -0.0046 0.3838
vn -0.3823 -0.0604 0.9221
vn -0.9229 0.0752 -0.3777
vn 0.9229 0.0752 -0.3777
vn -0.4705 0.8356 0.2835
vn 0.2189 0.7649 0.6059
vn -0.6036 -0.0939 0.7918
vn -0.6021 0.7499 -0.2740
vn 0.9983 0.0454 0.0372
vn 0.0594 -0.3858 0.9207
vn -0.8776 0.3765 0.2969
vn 0.0614 0.8076 -0.5866
vn 0.7243 0.5158 -0.4576
vn 0.7229 -0.3281 0.6082
vn -0.6955 -0.2853 0.6595
vn -0.7617 0.1173 -0.6372
vn 0.7172 0.6751 0.1730
vn -0.0829 -0.0543 0.9951
vn -0.9766 -0.2142 -0.0167
vn -0.1766 0.5151 -0.8387
vn 0.4360 0.7462 -0.5031
vn 0.5022 0.3435 0.7936
vn 0.1751 0.9072 -0.3826
vn -0.5864 0.0771 -0.8063
vn 0.7503 -0.1154 -0.6510
vn 0.0007 0.6310 0.7758
vn -0.8969 0.3863 -0.2154
vn 0.0959 -0.1307 -0.9868
vn 0.9935 0.1140 0.0044
vn 0.6830 0.4232 0.5953
vn -0.6537 0.6157 0.4400
vn 0.9236 0.0320 0.3819
vn -0.3809 0.1239 0.9163
vn -0.9185 -0.1213 -0.3763
vn 0.9185 -0.1213 -0.3763
vn 0.3809 0.1239 0.9163
vn -0.9236 0.0320 0.3819
vn -0.3737 -0.2471 -0.8940
vn 0.3737 -0.2471 -0.8940
vn 0.3395 -0.9294 -0.1448
vn -0.0704 -0.9967 -0.0402
vn 0.1745 -0.8919 0.4173
vn -0.3852 -0.9096 0.1555
vn -0.1287 -0.9404 -0.3148
vn 0.1287 -0.9404 -0.3148
vn 0.3852 -0.9096 0.1555
vn -0.1745 -0.8919 0.4173
vn -0.3395 -0.9294 -0.1448
vn 0.0704 -0.9967 -0.0402
vn 0.0292 -0.9978 0.0594
vn -0.0704 -0.9974 0.0181
vn -0.0291 -0.9963 -0.0814
vn 0.0291 -0.9963 -0.0814
vn 0.0704 -0.9974 0.0181
vn -0.0292 -0.9978 0.0594
vn -0.1453 -0.9894 0.0075
vn -0.0798 -0.9664 -0.2445
vn 0.1717 -0.9774 -0.1233
vn 0.0532 -0.9957 0.0756
vn -0.0532 -0.9957 0.0756
vn -0.1717 -0.9774 -0.1233
vn 0.0798 -0.9664 -0.2445
vn 0.1453 -0.9894 0.0075
vn -0.1767 -0.9723 -0.1531
vn 0.0752 -0.9624 -0.2611
vn 0.1684 -0.9857 -0.0108
vn -0.1684 -0.9857 -0.0108
vn -0.0752 -0.9624 -0.2611
vn 0.1767 -0.9723 -0.1531
vn 0.0669 -0.9945 0.0805
vn -0.0669 -0.9945 0.0805
vn 0.0504 -0.9983 0.0304
vn -0.0496 -0.9984 0.0285
vn -0.1215 -0.9826 -0.1408
vn 0.0522 -0.9750 -0.2161
vn 0.1242 -0.9915 -0.0395
vn -0.1197 -0.9919 -0.0414
vn -0.0514 -0.9754 -0.2142
vn 0.1260 -0.9817 -0.1427
# 172 vertex normals

vt 0.0000 0.0000 0.0000
# 1 texture coords

o mushroom_Circle_006
g mushroom_Circle_006
usemtl Material__35
s off
f 1/1/1 2/1/1 3/1/1 4/1/1 
f 5/1/2 6/1/2 7/1/2 8/1/2 
f 9/1/3 10/1/3 11/1/3 12/1/3 
f 13/1/4 14/1/4 15/1/4 16/1/4 
f 4/1/5 13/1/5 16/1/5 1/1/5 
f 3/1/6 2/1/6 6/1/6 5/1/6 
f 8/1/7 7/1/7 9/1/7 12/1/7 
f 14/1/8 11/1/8 10/1/8 15/1/8 
f 15/1/9 10/1/9 17/1/9 18/1/9 
f 1/1/10 19/1/10 20/1/10 2/1/10 
f 7/1/11 6/1/11 21/1/11 22/1/11 
f 10/1/12 9/1/12 23/1/12 17/1/12 
f 15/1/13 18/1/13 24/1/13 16/1/13 
f 16/1/14 24/1/14 19/1/14 1/1/14 
f 2/1/15 20/1/15 21/1/15 6/1/15 
f 9/1/16 7/1/16 22/1/16 23/1/16 
f 24/1/17 25/1/17 26/1/17 19/1/17 
f 21/1/18 20/1/18 27/1/18 28/1/18 
f 23/1/19 22/1/19 29/1/19 30/1/19 
f 17/1/20 31/1/20 32/1/20 18/1/20 
f 19/1/21 26/1/21 27/1/21 20/1/21 
f 22/1/22 21/1/22 28/1/22 29/1/22 
f 17/1/23 23/1/23 30/1/23 31/1/23 
f 18/1/24 32/1/24 25/1/24 24/1/24 
f 31/1/25 30/1/25 33/1/25 34/1/25 
f 25/1/26 32/1/26 35/1/26 36/1/26 
f 26/1/27 25/1/27 36/1/27 37/1/27 
f 27/1/28 38/1/28 39/1/28 28/1/28 
f 29/1/29 40/1/29 33/1/29 30/1/29 
f 32/1/30 31/1/30 34/1/30 35/1/30 
f 26/1/31 37/1/31 38/1/31 27/1/31 
f 28/1/32 39/1/32 40/1/32 29/1/32 
f 37/1/33 41/1/33 42/1/33 38/1/33 
f 39/1/34 43/1/34 44/1/34 40/1/34 
f 34/1/35 33/1/35 45/1/35 46/1/35 
f 36/1/36 35/1/36 47/1/36 48/1/36 
f 36/1/37 48/1/37 41/1/37 37/1/37 
f 38/1/38 42/1/38 43/1/38 39/1/38 
f 33/1/39 40/1/39 44/1/39 45/1/39 
f 35/1/40 34/1/40 46/1/40 47/1/40 
f 44/1/41 49/1/41 50/1/41 45/1/41 
f 47/1/42 46/1/42 51/1/42 52/1/42 
f 41/1/43 53/1/43 54/1/43 42/1/43 
f 43/1/44 55/1/44 49/1/44 44/1/44 
f 46/1/45 45/1/45 50/1/45 51/1/45 
f 48/1/46 47/1/46 52/1/46 56/1/46 
f 41/1/47 48/1/47 56/1/47 53/1/47 
f 42/1/48 54/1/48 55/1/48 43/1/48 
f 57/1/49 58/1/49 49/1/49 55/1/49 
f 50/1/50 58/1/50 59/1/50 51/1/50 
f 56/1/51 60/1/51 53/1/51 
f 57/1/52 60/1/52 59/1/52 58/1/52 
f 60/1/53 57/1/53 54/1/53 53/1/53 
f 52/1/54 59/1/54 60/1/54 56/1/54 
f 59/1/55 52/1/55 51/1/55 
f 58/1/56 50/1/56 49/1/56 
f 57/1/57 55/1/57 54/1/57 
f 61/1/58 62/1/58 63/1/58 64/1/58 
f 65/1/59 66/1/59 67/1/59 68/1/59 
f 69/1/60 70/1/60 71/1/60 72/1/60 
f 73/1/61 74/1/61 62/1/61 61/1/61 
f 64/1/62 63/1/62 67/1/62 66/1/62 
f 70/1/63 65/1/63 68/1/63 71/1/63 
f 75/1/64 69/1/64 72/1/64 76/1/64 
f 75/1/65 76/1/65 74/1/65 73/1/65 
f 74/1/66 77/1/66 78/1/66 62/1/66 
f 63/1/67 79/1/67 80/1/67 67/1/67 
f 71/1/68 68/1/68 81/1/68 82/1/68 
f 76/1/69 72/1/69 83/1/69 84/1/69 
f 76/1/70 84/1/70 77/1/70 74/1/70 
f 62/1/71 78/1/71 79/1/71 63/1/71 
f 68/1/72 67/1/72 80/1/72 81/1/72 
f 72/1/73 71/1/73 82/1/73 83/1/73 
f 81/1/74 80/1/74 85/1/74 86/1/74 
f 83/1/75 82/1/75 87/1/75 88/1/75 
f 77/1/76 89/1/76 90/1/76 78/1/76 
f 79/1/77 91/1/77 85/1/77 80/1/77 
f 82/1/78 81/1/78 86/1/78 87/1/78 
f 84/1/79 83/1/79 88/1/79 92/1/79 
f 84/1/80 92/1/80 89/1/80 77/1/80 
f 78/1/81 90/1/81 91/1/81 79/1/81 
f 93/1/82 94/1/82 89/1/82 92/1/82 
f 95/1/83 96/1/83 91/1/83 90/1/83 
f 97/1/84 98/1/84 86/1/84 85/1/84 
f 99/1/85 100/1/85 88/1/85 87/1/85 
f 94/1/86 95/1/86 90/1/86 89/1/86 
f 96/1/87 97/1/87 85/1/87 91/1/87 
f 98/1/88 99/1/88 87/1/88 86/1/88 
f 100/1/89 93/1/89 92/1/89 88/1/89 
f 101/1/90 102/1/90 97/1/90 96/1/90 
f 98/1/91 103/1/91 104/1/91 99/1/91 
f 100/1/92 105/1/92 106/1/92 93/1/92 
f 94/1/93 93/1/93 106/1/93 107/1/93 
f 96/1/94 95/1/94 108/1/94 101/1/94 
f 102/1/95 103/1/95 98/1/95 97/1/95 
f 99/1/96 104/1/96 105/1/96 100/1/96 
f 95/1/97 94/1/97 107/1/97 108/1/97 
f 109/1/98 110/1/98 111/1/98 
f 112/1/98 113/1/98 111/1/98 
f 113/1/98 114/1/98 111/1/98 
f 115/1/98 116/1/98 111/1/98 
f 117/1/98 109/1/98 111/1/98 
f 110/1/98 112/1/98 111/1/98 
f 114/1/98 115/1/98 111/1/98 
f 116/1/98 117/1/98 111/1/98 
f 118/1/99 119/1/99 120/1/99 
f 121/1/99 122/1/99 120/1/99 
f 123/1/99 124/1/99 120/1/99 
f 119/1/99 125/1/99 120/1/99 
f 122/1/99 118/1/99 120/1/99 
f 126/1/99 121/1/99 120/1/99 
f 124/1/99 126/1/99 120/1/99 
f 125/1/99 123/1/99 120/1/99 
f 119/1/100 118/1/100 127/1/100 128/1/100 
f 122/1/101 121/1/101 129/1/101 130/1/101 
f 124/1/102 123/1/102 131/1/102 132/1/102 
f 125/1/103 119/1/103 128/1/103 133/1/103 
f 118/1/104 122/1/104 130/1/104 127/1/104 
f 121/1/105 126/1/105 134/1/105 129/1/105 
f 126/1/106 124/1/106 132/1/106 134/1/106 
f 123/1/107 125/1/107 133/1/107 131/1/107 
f 117/1/108 116/1/108 135/1/108 136/1/108 
f 115/1/109 114/1/109 137/1/109 138/1/109 
f 112/1/110 110/1/110 139/1/110 140/1/110 
f 109/1/111 117/1/111 136/1/111 141/1/111 
f 116/1/112 115/1/112 138/1/112 135/1/112 
f 114/1/113 113/1/113 142/1/113 137/1/113 
f 113/1/114 112/1/114 140/1/114 142/1/114 
f 110/1/115 109/1/115 141/1/115 139/1/115 
f 143/1/116 144/1/116 145/1/116 
f 146/1/116 147/1/116 145/1/116 
f 147/1/116 148/1/116 145/1/116 
f 149/1/116 150/1/116 145/1/116 
f 151/1/116 143/1/116 145/1/116 
f 144/1/116 146/1/116 145/1/116 
f 148/1/116 149/1/116 145/1/116 
f 150/1/116 151/1/116 145/1/116 
f 151/1/117 150/1/117 152/1/117 153/1/117 
f 149/1/118 148/1/118 154/1/118 155/1/118 
f 146/1/119 144/1/119 156/1/119 157/1/119 
f 143/1/120 151/1/120 153/1/120 158/1/120 
f 150/1/121 149/1/121 155/1/121 152/1/121 
f 148/1/122 147/1/122 159/1/122 154/1/122 
f 147/1/123 146/1/123 157/1/123 159/1/123 
f 144/1/124 143/1/124 158/1/124 156/1/124 
f 64/1/125 160/1/125 161/1/125 61/1/125 
f 66/1/126 65/1/126 162/1/126 163/1/126 
f 70/1/127 69/1/127 164/1/127 165/1/127 
f 61/1/128 161/1/128 166/1/128 73/1/128 
f 66/1/129 163/1/129 160/1/129 64/1/129 
f 65/1/130 70/1/130 165/1/130 162/1/130 
f 69/1/131 75/1/131 167/1/131 164/1/131 
f 73/1/132 166/1/132 167/1/132 75/1/132 
f 161/1/133 168/1/133 169/1/133 166/1/133 
f 170/1/134 171/1/134 172/1/134 
f 163/1/135 173/1/135 174/1/135 160/1/135 
f 162/1/136 165/1/136 170/1/136 175/1/136 
f 164/1/137 167/1/137 176/1/137 171/1/137 
f 166/1/138 169/1/138 176/1/138 167/1/138 
f 160/1/139 174/1/139 168/1/139 161/1/139 
f 163/1/140 162/1/140 175/1/140 173/1/140 
f 165/1/141 164/1/141 171/1/141 170/1/141 
f 169/1/142 168/1/142 172/1/142 
f 174/1/143 173/1/143 172/1/143 
f 175/1/144 170/1/144 172/1/144 
f 171/1/145 176/1/145 172/1/145 
f 176/1/146 169/1/146 172/1/146 
f 168/1/147 174/1/147 172/1/147 
f 173/1/148 175/1/148 172/1/148 
f 107/1/149 177/1/149 178/1/149 108/1/149 
f 101/1/150 179/1/150 180/1/150 102/1/150 
f 104/1/151 103/1/151 181/1/151 182/1/151 
f 106/1/152 105/1/152 183/1/152 184/1/152 
f 106/1/153 184/1/153 177/1/153 107/1/153 
f 108/1/154 178/1/154 179/1/154 101/1/154 
f 103/1/155 102/1/155 180/1/155 181/1/155 
f 105/1/156 104/1/156 182/1/156 183/1/156 
f 179/1/157 178/1/157 185/1/157 186/1/157 
f 180/1/158 187/1/158 188/1/158 181/1/158 
f 182/1/159 189/1/159 190/1/159 183/1/159 
f 178/1/160 177/1/160 191/1/160 185/1/160 
f 180/1/161 179/1/161 186/1/161 187/1/161 
f 181/1/162 188/1/162 189/1/162 182/1/162 
f 183/1/163 190/1/163 192/1/163 184/1/163 
f 177/1/164 184/1/164 192/1/164 191/1/164 
f 192/1/165 190/1/165 14/1/165 13/1/165 
f 191/1/166 192/1/166 13/1/166 4/1/166 
f 185/1/167 3/1/167 5/1/167 186/1/167 
f 187/1/168 8/1/168 12/1/168 188/1/168 
f 190/1/169 189/1/169 11/1/169 14/1/169 
f 191/1/170 4/1/170 3/1/170 185/1/170 
f 186/1/171 5/1/171 8/1/171 187/1/171 
f 189/1/172 188/1/172 12/1/172 11/1/172 
# 157 polygons - 36 triangles

